PathFileType	4	(X/Y/Z)	Patient4_TMGait_0pt5_02_right_33.trc.trc
DataRate	CameraRate	NumFrames	NumMarkers	Units	OrigDataRate	OrigDataStartFrame	OrigNumFrames
78.212290502793	78.212290502793	7	33	mm	78.212290502793	1	       141
Frame#	Time	Sacral			L.Shoulder			Chest			R.Shoulder			Neck			R.ASIS			L.ASIS			R.Thigh.Superior			R.Thigh.Lateral			R.Thigh.Inferior			R.Patella			L.Thigh.Superior			L.Thigh.Lateral			L.Thigh.Inferior			L.Patella			L.Shank.Superior			L.Shank.Lateral			L.Shank.Inferior			R.Shank.Superior			R.Shank.Lateral			R.Shank.Inferior			R.Heel			R.Midfoot.Superior			R.Midfoot.Lateral			R.Toe			L.Heel			L.Midfoot.Lateral			L.Midfoot.Superior			L.Toe			L.Elbow			L.Wrist			R.Elbow			R.Wrist			
		X1	Y1	Z1	X2	Y2	Z2	X3	Y3	Z3	X4	Y4	Z4	X5	Y5	Z5	X6	Y6	Z6	X7	Y7	Z7	X8	Y8	Z8	X9	Y9	Z9	X10	Y10	Z10	X11	Y11	Z11	X12	Y12	Z12	X13	Y13	Z13	X14	Y14	Z14	X15	Y15	Z15	X16	Y16	Z16	X17	Y17	Z17	X18	Y18	Z18	X19	Y19	Z19	X20	Y20	Z20	X21	Y21	Z21	X22	Y22	Z22	X23	Y23	Z23	X24	Y24	Z24	X25	Y25	Z25	X26	Y26	Z26	X27	Y27	Z27	X28	Y28	Z28	X29	Y29	Z29	X30	Y30	Z30	X31	Y31	Z31	X32	Y32	Z32	X33	Y33	Z33	

1	43.160000000000	716.616720062770	1016.289762668628	454.684589063035	916.442838253532	1438.863143109883	281.970297042880	1010.913086804527	1362.953383247796	445.232192717819	924.406241590465	1438.363988674176	618.427982265917	913.707460071628	1498.177793330798	434.155763856463	939.491078010822	946.895468565300	578.485668876247	934.361417405515	961.954577974627	304.245235610752	1015.519873952827	772.334897849413	548.332138186098	970.455693371477	651.801314282872	616.911690751848	1059.177671788008	608.837412692294	538.252813661613	1071.862250369634	493.015924824686	558.754539063415	979.955008779972	751.772952245695	333.185584662362	890.416001528116	637.818022822703	276.910915332508	971.533446819225	559.516878634110	343.327986220118	970.115859397154	489.724690312108	355.448539699776	944.636760445552	418.387086764497	346.649632168272	858.480337752354	303.491605804922	292.351064220841	905.181518805802	193.865394775905	368.513875170191	990.494978686309	423.279939630764	565.710775699642	867.678564159289	392.608702774937	628.191554484528	843.115571867508	286.348635193309	577.938836811544	638.272567769014	246.265409506261	556.771485505054	799.953714988877	165.524982258385	585.373667953513	690.809360038723	171.769026044319	621.505380209829	851.906294224005	43.522930104355	597.077205040407	773.611061304872	38.025923970504	405.678948053008	850.563091480666	35.338297110156	327.866734236864	932.682442709175	96.264544353927	357.847962466202	1062.297882827868	43.998951616525	334.710639207008	869.222678877777	1107.806493992715	119.977409317489	1044.720636476999	914.049125718622	106.987842121060	837.910573329597	1102.082629753000	734.046536230907	910.356487965338	850.304681434256	741.271334696697	
2	43.172785714286	716.023882304392	1016.806488806542	454.074421562834	917.348150416153	1439.291291470506	281.730345291689	1010.716777689461	1363.316455855989	445.554342347674	923.257255633808	1438.825893724621	618.243300211361	913.542202415767	1498.531610523590	433.938280394843	938.445178850033	947.581336270520	578.357517725313	934.245076054567	962.304311244655	304.188385336743	1016.444899599893	775.551003478978	547.330320348489	974.250878157167	654.492611433293	616.432093771889	1062.709598502612	612.873323362009	536.818220630825	1078.142921882181	497.652303675821	557.476847692222	977.474823302397	750.859828203862	333.951338531234	887.132365046681	637.903169783496	276.862106792894	966.785691178876	558.768934160033	343.828041870178	964.455511126943	489.118815622534	355.932730769782	938.982761875653	418.103973975055	346.813273965301	852.531442414164	303.456262059247	292.404708247558	898.621246593638	193.711550973826	368.723531762679	998.649764388106	426.071827286713	564.932769417830	877.080949639481	391.585470922088	627.542752728621	855.898576143403	284.565193319964	577.522393498448	652.650142136239	237.401589691553	556.311528214698	816.803468023209	162.661416250589	585.248712713982	707.697096095481	165.319006697237	621.515466905070	873.018347510913	42.866433799178	597.765210177865	766.713391366949	37.944430757820	405.710160934424	843.712709455528	35.308967308028	327.858402166141	925.818912050461	96.260192231217	357.877837654535	1055.410594340619	44.139433647296	334.709733268667	875.449695589934	1108.769277811795	117.945601838738	1058.591709057036	923.491246087512	105.100060447824	829.426726090447	1104.421804382907	731.975293832631	889.270705964693	850.329348262286	736.742012722808	
3	43.185571428571	715.443423614528	1017.280336827338	453.471993153485	918.242456008581	1439.682830805027	281.517942940563	1010.516265329302	1363.652501511770	445.904610713932	922.095527670355	1439.258809259183	618.071132322153	913.373984121161	1498.854007465041	433.746827571165	937.406367306962	948.230318343238	578.256724353633	934.194980505027	962.633256416297	304.144908122152	1017.322563903954	778.658068161643	546.395015546554	977.918659095615	657.098016263581	616.005626108979	1066.112227010228	616.775588237104	535.470839521547	1084.206561552460	502.194405902772	556.313930241168	975.043489516694	749.949308254786	334.725009298666	883.904555179880	637.973141954217	276.804624287132	962.099104232861	558.017263163440	344.315143498860	958.866396401415	488.511955616171	356.400314362111	933.394280120920	417.808643096429	346.970539279383	846.652305993760	303.414348251961	292.448939430137	892.116826354399	193.550224642681	368.925616789643	1006.662248982195	428.753704615041	564.242193465253	886.383318004735	390.348959465502	626.951913507966	868.700147500841	282.576000174940	577.149938914941	667.131379650700	228.178618622306	555.866839438574	833.769925502927	159.602899132887	585.162508699488	724.716649730477	158.580103035969	621.548356045894	894.331938791290	42.099020854215	598.502734954167	759.877128960713	37.864065095229	405.736712338226	836.919620401502	35.278517295732	327.848947367789	919.011542275774	96.253615305164	357.907755651102	1048.584199321026	44.272505717584	334.710218244749	881.619523213926	1109.696997517291	115.983429701536	1072.290710189779	932.929631268979	103.281179643431	820.994890068273	1106.769830647954	729.910975593467	868.560812082961	850.499914703393	732.282242128399	
4	43.198357142857	714.892658952304	1017.674183497648	452.885742289609	919.131484537996	1440.002481329334	281.367437526129	1010.317851128719	1363.931725629280	446.317607673664	920.920026493073	1439.633593296002	617.931941501112	913.214412298189	1499.113509615304	433.613247605689	936.380583677498	948.802186221556	578.219017729344	934.259290809900	962.921680131618	304.141127251361	1018.075463003535	781.518443040353	545.608525148532	981.264182063893	659.504173950828	615.697492778910	1069.196619491594	620.377331644137	534.319553483683	1089.786331981242	506.533567254758	555.379492087570	972.707658502679	749.040219681917	335.518121899493	880.785301121288	638.013757356519	276.737794172689	957.531584015087	557.257449089845	344.783603137035	953.415839682222	487.900449577534	356.841560876935	927.930123196824	417.487417527525	347.121881811936	840.900525755564	303.360102797193	292.479748184242	885.708882866663	193.373253428807	369.116239787054	1014.362254891795	431.223736853980	563.724200053199	895.524789434934	388.698721742303	626.494344271760	881.584615785991	280.231421885272	576.873472086581	681.962409026384	218.288347534304	555.474200915708	851.051264060867	156.244728836172	585.152322223336	742.134730998313	151.334518631422	621.630894744707	916.115645141719	41.252370516329	599.312198074965	753.140126273671	37.788702090565	405.754938429554	830.218940977752	35.246757590009	327.838110709658	912.295447022873	96.242273615654	357.939114887544	1041.856039962937	44.389278751207	334.713527869385	887.693078709317	1110.557823124660	114.168719837669	1085.648728604093	942.363345014561	101.621621939240	812.690908794737	1109.123864465121	727.861157974388	848.625609261773	850.932749617307	727.963312871820	
5	43.211142857143	714.386708950755	1017.960278495035	452.320926220013	920.026915846364	1440.221586680402	281.309292382413	1010.130244028323	1364.128714757938	446.824784341513	919.733879279268	1439.927280133711	617.848217022212	913.079524962067	1499.284400141325	433.565676265415	935.369003168436	949.262357746404	578.276932225583	934.468920132646	963.148148650785	304.202753390142	1018.629375793713	784.011096667784	545.043467661316	984.104772444490	661.607629466308	615.564013662408	1071.789140238603	623.530381042023	533.460991235404	1094.654146753794	510.579131880628	554.766328853605	970.503269358910	748.127655730318	336.339742631165	877.810649851923	638.013127569317	276.665421482517	953.121616394574	556.483744920846	345.231530916841	948.149456573529	487.279833570257	357.251333203410	922.627260758768	417.128262482037	347.270260065108	835.308287060972	303.289065973486	292.496097934260	879.415317779346	193.173171852436	369.293752129186	1021.611837303790	433.403601908120	563.445932103058	904.491359327363	386.466364869180	626.239273412514	894.650766331444	277.425948484189	576.737082362296	697.438460030305	207.480711217571	555.170326734501	868.878667354108	152.530624750582	585.247115993540	760.262377052864	143.419320512687	621.785970841010	938.658808333664	40.409742309981	600.200742260961	746.512330998077	37.721841051146	405.762511750635	823.618468703115	35.214028387361	327.825758059337	905.679123759426	96.224034956211	357.973591501735	1035.235623872424	44.481835384535	334.720886267534	893.658255649682	1111.327413657895	112.565446548797	1098.551617609557	951.808794909811	100.202127625949	804.567494287466	1111.481881229068	725.824679018330	829.765007127062	851.708440144756	723.843940814458	
6	43.223928571429	713.938644592878	1018.123061761132	451.780325415119	920.945084651615	1440.321184477517	281.367644806831	1009.964966595866	1364.224637237075	447.450737912523	918.547338123368	1440.124847340356	617.842934144313	912.989380057849	1499.349266438778	433.626062881792	934.370681213916	949.584870973315	578.457172760408	934.831616494428	963.290823293921	304.353339765648	1018.918233001048	786.038135993549	544.757319050932	986.279762574600	663.320552938735	615.647858214026	1073.740869198110	626.113442269328	532.971803051787	1098.631505598675	514.260047664243	554.536811411761	968.455007441441	747.204775558761	337.195101874181	875.001462615875	637.962984095309	276.596235811137	948.891887996425	555.690964274067	345.661225482513	943.095215938009	486.645814179312	357.629911335248	917.505564209533	416.722480151882	347.421333607827	829.888085137102	303.198801065026	292.500471262395	873.239515583356	192.944325731932	369.458975403447	1028.304182609104	435.243723579677	563.449603790733	913.301616761790	383.540932033323	626.243550058959	907.997335718673	274.119878969275	576.773071564189	713.849338753235	195.617608657717	554.989457864869	887.460034097733	148.473530693921	585.464571355368	779.392702143284	134.766616245970	622.030146204987	962.198119370159	39.708655509383	601.156873594433	739.984888736374	37.666558861939	405.758688352307	817.108014298300	35.181370799727	327.811973017038	899.153784057601	96.197405653032	358.013010543713	1028.713722602090	44.543929442792	334.733132909773	899.521069025485	1111.990723351300	111.220699686577	1110.928383075347	961.279992056796	99.089740622600	796.667447078637	1113.836783413064	723.796828881974	812.186376111199	852.858921968861	719.970303402818	
7	43.236714285714	713.560129104677	1018.159662614932	451.265216697500	921.905868310609	1440.293406745156	281.559431462124	1009.836378621458	1364.208149959329	448.211523168199	917.378356363481	1440.219231240472	617.937239402144	912.966911094247	1499.299978933127	433.808886644372	933.385482774683	949.753877584775	578.779301186865	935.329273217931	963.328442976847	304.614609497016	1018.887673169513	787.528037617296	544.789943172839	987.657465525194	664.574834351700	615.976350138473	1074.933356693506	628.037309739060	532.904448149848	1101.593013089469	517.525260334784	554.718395888204	966.576008800136	746.264181458388	338.086203276344	872.366215358800	637.859199170155	276.543130292111	944.853031879671	554.875652932921	346.079630176416	938.267165145293	485.994359847757	357.983583312814	912.572214718033	416.265149224225	347.583567323024	824.638470689609	303.089110027216	292.498947274050	867.176461442092	192.683386853271	369.615302993257	1034.360308999312	436.724446764334	563.750457751789	921.990187827822	379.883220940501	626.547337349394	921.694937544222	270.347343047418	577.000498293735	731.433112520923	182.700048847077	554.961440324330	906.936942710901	144.161630621913	585.810408870356	799.750978979371	125.421830039544	622.372747289046	986.865858726767	39.333076321775	602.151721458742	733.537979810490	37.625574137372	405.744320134533	810.667412774812	35.150570520872	327.797121483274	892.701152149385	96.161611582174	358.059213421855	1022.270187652165	44.571445873492	334.750596394556	905.296953950479	1112.542651336470	110.164288147138	1122.739316135044	970.775045898082	98.336154472189	789.036144355217	1116.171878511016	721.775509264767	796.019197621995	854.364265914900	716.374802334475	
